Patient4_TMGait_0pt2_02_right_11_EMG.mot
version=1
nRows=16
nColumns=33
inDegrees=no
endheader
time	1LAddLong	2LGlutMax	3LGlutMed	4LIliopsoas	5LSemiMemb	6LBicFemLong	7LRecFem	8LVastMed	9LVastLat	10LGasMed	11LTibAnt	12lTibPost	13LPeroneusLong	14LSol	15LExtDigLong	16LFlexDigLong	17RAddLong	18RGlutMax	19RGlutMed	20RIliopsoas	21RSemiMemb	22RBicFemLong	23RRecFem	24RVastMed	25RVastLat	26RGasMed	27RTibAnt	28RTibPost	29RPeroneusLong	30RSol	31RExtDigLong	32RFlexDigLong
24.98	-0.005493	0.049286	-0.053406	-0.008087	-0.002441	-0.032654	0.013885	0.005798	0.027008	0.047455	0.15243	0.000916	-0.12634	0.06897	-0.5896	0.003815	0.049744	-0.001984	0.40878	-0.12619	0.11169	0.073547	-0.08255	-0.25772	-0.13534	0.020142	0.4689	0.005188	0.35614	-0.14923	-0.003204	-0.005798
24.981	-0.005341	-0.004883	-0.013428	0.00473	0.014343	-0.037537	-0.009766	-0.001221	0.017853	0.01236	0.01358	0.007324	-0.061646	0.092316	-0.072479	0.009155	0.058136	-0.036926	0.35645	-0.087738	-0.48691	0.13351	0.053711	-0.33737	-0.10254	0.025024	-0.73425	0.000458	0.29236	-0.37308	0.003815	0.001984
24.982	0.010071	-0.012512	-0.006561	0.013275	-0.016479	-0.002136	-0.009308	0.001984	0.028229	-0.032806	0.061035	0.003967	0.006256	0.19608	0.16846	0.011292	0.09491	-0.005341	-0.13962	-0.1091	-0.43732	0.04303	0.18585	-0.39581	-0.10696	0.001526	-0.22827	0.001984	-0.21652	-0.16174	0.000305	-0.010986
24.983	-0.000305	0.027313	0.024109	0.008392	-0.022736	0.014954	-0.006714	0.000458	0.034332	-0.077972	0.19623	0.002441	0.082245	0.24765	0.015869	0.019684	0.10147	0.015411	-0.19623	-0.20386	-0.17014	-0.074158	0.21805	-0.29282	-0.10315	-0.001221	-0.14313	0.005035	-0.11322	0.061646	-0.002747	-0.005188
24.984	0.027618	0.042877	0.017548	0.003662	-0.007629	0.003662	-0.00061	0.00412	0.034943	-0.09491	-0.031128	0.007172	0.15808	0.2478	0.96542	0.006104	0.084534	0.029602	-0.25864	-0.070038	-0.16785	-0.1178	0.11154	-0.21378	-0.08194	0.001984	0.15839	0.001221	-0.032501	0.23117	-0.005341	-0.014954
24.985	0.000916	0.048523	0.037842	-0.001831	-0.012512	0.000305	0.019531	0.007324	0.035095	-0.050964	-0.31693	0.004883	0.079498	0.18967	-0.23361	-0.009155	0.039978	0.021362	-0.18601	0.20325	-0.071411	-0.076447	0.13123	-0.22903	-0.064545	-0.001678	0.12222	0.001678	-0.005341	0.36057	-0.005798	-0.018616
24.986	0.013733	0.056305	0.027161	0.009003	-0.000153	-0.02243	0.010986	0.006104	0.019531	0.023041	0.13718	0.002747	-0.1738	0.11276	0.29495	0.003357	-0.077515	0.03418	0.15778	0.24811	-0.1506	0.026245	0.11276	-0.20462	-0.022125	-0.000458	-0.65781	-0.000305	0.1651	0.29846	-0.005188	-0.009766
24.987	-0.000763	0.033722	0.008545	-0.000458	0.020752	-0.008392	0.023041	0.005646	0.021057	-0.021362	0.28778	0.001984	-0.13046	0.083923	-0.81451	0.005341	-0.10986	0.070801	0.28641	0.23117	-0.35034	0.025482	0.092316	0.005951	0.03006	0.017395	-0.57602	0.000916	0.18585	0.08728	-0.008392	-0.001373
24.988	-0.004883	0.010223	-0.030823	0.00824	0.019531	-0.015564	0.006409	0.005646	0.025787	0.003052	-0.050201	0.007172	0.10529	-0.069275	-1.3034	-0.024109	-0.17136	0.075226	0.2385	0.13886	0.22186	0.13397	-0.090942	0.18082	0.072327	0.00824	-0.61615	0.001678	0.086365	-0.033264	-0.00473	-0.012054
24.989	0.013123	-0.001221	-0.036011	-0.017395	-0.000458	-0.019684	0.002289	0.005188	0.023041	-0.024719	-0.12024	0.005646	0.26855	-0.093689	-0.25787	-0.011444	-0.13336	0.085602	0.021667	0.07309	0.47165	0.12528	-0.065155	0.26535	0.076294	0.010834	0.078735	0.002136	-0.005035	-0.049744	0.001831	-0.012054
24.99	0.010834	-0.002594	-0.015411	-0.013428	-0.00351	-0.016632	0.005951	0.000916	0.023499	-0.024719	-0.23941	0.000916	0.21454	-0.016022	-0.64133	-0.00946	-0.099335	0.13046	0.63339	0.059814	0.16083	0.062866	0.022583	0.30228	0.054169	0.001678	0.47897	0.001221	-0.11948	-0.041046	-0.005493	-0.015259
24.991	0.006256	0.016022	0.016174	0.025177	-0.003662	-0.041046	0.017548	0.000305	0.018463	0.007324	-0.19272	0.006409	-0.000916	-0.1062	-0.094299	-0.020599	-0.088654	0.12268	0.62164	0.036621	-0.14496	0.011292	0.036926	0.34119	0.015869	-0.011444	0.34088	-0.000763	-0.20432	-0.05661	-0.001221	-0.00412
24.992	-0.00061	-0.01236	-0.017395	0.029144	-0.016479	-0.074768	0.010223	0.005035	0.009308	-0.037231	-0.23086	-0.00473	0.023193	0.077515	-0.47302	-0.001678	-0.013733	0.060883	0.24689	0.036774	-0.19989	-0.028687	0.12054	0.38361	-0.018158	-0.010376	0.30991	-0.001984	-0.13687	0.00061	-0.00412	-0.000458
24.993	0.011444	-0.015564	-0.012054	0.02121	0.002747	-0.043488	0.007935	0.000153	0.015259	-0.010376	-0.12604	0.005646	0.072021	-0.089111	-0.082397	0.005341	0.005951	0.10132	-0.054626	0.077057	-0.13718	0.028839	0.11475	0.46707	-0.017395	-0.001373	0.49927	0.000916	-0.11612	-0.043488	-0.009918	-0.007324
24.994	-0.005341	-0.00885	0.02182	0.009308	0.010223	-0.076904	0.017242	0.005035	0.02182	0.013733	0.002594	0.00885	0.001831	-0.12405	0.059814	0.007019	-0.02243	0.086975	-0.15671	0.044403	0.11795	0.091248	-0.058136	0.522	0.014954	0.002899	0.60593	0.000763	-0.054779	-0.046387	-0.007324	-0.010376
24.995	0.011749	0.031586	0.096741	0.001373	0.007172	-0.1059	0.019684	0.012512	0.015106	0.010529	-0.06897	0.001526	0.015259	-0.1033	0.047455	0.004578	-0.024109	0.087128	0.30579	-0.034332	0.25879	0.11932	-0.16663	0.82947	0.11063	0.000763	0.51819	-0.001221	-0.054321	-0.00473	-0.004883	-0.011292
